# xmcd
#
# Track frame offsets:
#	150
#	13629
#	30493
#	47000
#	64225
#	82015
#	96850
#	111861
#	126163
#	143422
#	160130
#	174973
#
# Disc length: 2585 seconds
#
# Revision: 1
# Processed by: cddbd v1.5.2PL0 Copyright (c) Steve Scherf et al.
# Submitted via: audiograbber 1.83.01
#
DISCID=930a170c
DTITLE=Barry P. Foley - The Crooked Road
DYEAR=2011
DGENRE=Country
TTITLE0=Airport Love Story
TTITLE1=Crooked Road
TTITLE2=Radio On Trial
TTITLE3=Tuscon
TTITLE4=Moonshine Daddy
TTITLE5=I Play Country Music
TTITLE6=Country Boy
TTITLE7=That Girl Who Sang Johnny Cash
TTITLE8=This Old Car
TTITLE9=Winds of Corpus Christi
TTITLE10=Montana
TTITLE11=Guardian Angel
EXTD=
EXTT0=
EXTT1=
EXTT2=
EXTT3=
EXTT4=
EXTT5=
EXTT6=
EXTT7=
EXTT8=
EXTT9=
EXTT10=
EXTT11=
PLAYORDER=
